<?xml version="1.0" encoding="UTF-8" standalone="no"?>
<!-- Created with Inkscape (http://www.inkscape.org/) -->

<svg
   xmlns:dc="http://purl.org/dc/elements/1.1/"
   xmlns:cc="http://creativecommons.org/ns#"
   xmlns:rdf="http://www.w3.org/1999/02/22-rdf-syntax-ns#"
   xmlns:svg="http://www.w3.org/2000/svg"
   xmlns="http://www.w3.org/2000/svg"
   xmlns:sodipodi="http://sodipodi.sourceforge.net/DTD/sodipodi-0.dtd"
   xmlns:inkscape="http://www.inkscape.org/namespaces/inkscape"
   width="1016.6274mm"
   height="233.31342mm"
   viewBox="0 0 1016.6274 233.31342"
   version="1.1"
   id="svg8"
   inkscape:version="0.92.2 5c3e80d, 2017-08-06"
   sodipodi:docname="season.svg">
  <defs
     id="defs2" />
  <sodipodi:namedview
     id="base"
     pagecolor="#ffffff"
     bordercolor="#666666"
     borderopacity="1.0"
     inkscape:pageopacity="0.0"
     inkscape:pageshadow="2"
     inkscape:zoom="0.24748737"
     inkscape:cx="2065.5415"
     inkscape:cy="82.983915"
     inkscape:document-units="mm"
     inkscape:current-layer="layer1"
     showgrid="false"
     inkscape:window-width="1820"
     inkscape:window-height="965"
     inkscape:window-x="-1"
     inkscape:window-y="0"
     inkscape:window-maximized="0"
     fit-margin-top="0"
     fit-margin-left="0"
     fit-margin-right="0"
     fit-margin-bottom="0" />
  <metadata
     id="metadata5">
    <rdf:RDF>
      <cc:Work
         rdf:about="">
        <dc:format>image/svg+xml</dc:format>
        <dc:type
           rdf:resource="http://purl.org/dc/dcmitype/StillImage" />
        <dc:title></dc:title>
      </cc:Work>
    </rdf:RDF>
  </metadata>
  <g
     inkscape:label="Layer 1"
     inkscape:groupmode="layer"
     id="layer1"
     transform="translate(507.30656,68.983681)">
    <path
       style="fill:#000000;fill-opacity:1;stroke:#000000;stroke-width:0.12476683;stroke-opacity:0.99526068"
       d="M -507.24418,-68.881433 V 164.26735 h 238.44072 V -68.881433 Z m 22.57224,23.724302 h 13.03914 c 3.89152,0 6.89014,0.828991 8.99593,2.486769 2.10581,1.657777 3.15867,4.014858 3.15867,7.071388 0,2.365787 -0.53902,4.248044 -1.61717,5.646795 -1.07819,1.39875 -2.66168,2.270797 -4.75065,2.616168 2.51013,0.552592 4.45587,1.709484 5.83726,3.470874 1.39826,1.744121 2.09729,3.928734 2.09729,6.55355 0,3.453705 -1.14558,6.121657 -3.4367,8.0039256 -2.2911,1.8822687 -5.55084,2.823399 -9.77928,2.823399 h -13.54449 z m 94.63473,0 h 5.78654 l 14.37854,38.6728686 h -5.30668 l -3.4367,-9.9208096 h -17.00642 l -3.4367,9.9208096 h -5.38235 z m 75.07588,0 h 5.10436 v 34.269456 h 18.37103 v 4.4034126 h -23.47539 z m -164.60602,4.299797 v 11.656247 h 7.55561 c 2.49326,0 4.34629,-0.474822 5.55923,-1.424592 1.22979,-0.967036 1.84474,-2.4348 1.84474,-4.403412 0,-1.951343 -0.61495,-3.410591 -1.84474,-4.377628 -1.21294,-0.967037 -3.06597,-1.450615 -5.55923,-1.450615 z m 92.41079,0.854947 -6.92386,19.24571 h 13.87295 z m -92.41079,15.049528 v 14.168799 h 8.18735 c 2.74596,0 4.77576,-0.578687 6.08979,-1.735678 1.33085,-1.17426 1.99638,-2.96141 1.99638,-5.361733 0,-2.417594 -0.66553,-4.196229 -1.99638,-5.33595 -1.31403,-1.156993 -3.34383,-1.735438 -6.08979,-1.735438 z m -6.33548,52.696365 h 5.41004 v 34.269213 h 19.47114 v 4.403654 h -24.88118 z m 82.91908,0 h 25.28265 v 4.403412 h -19.8726 v 11.449014 h 19.04245 v 4.403411 h -19.04245 v 14.013376 h 20.35467 v 4.403654 h -25.76472 z m 81.55295,0 h 33.82641 v 4.403412 h -14.19459 v 34.269455 h -5.43699 V 32.146918 h -14.19483 z m -150.7997,73.878714 c 1.80779,0 3.65002,0.15798 5.52666,0.47423 1.87664,0.31624 3.79639,0.79066 5.75911,1.42314 v 4.91835 c -1.97993,-0.91543 -3.84792,-1.59785 -5.60405,-2.04724 -1.75611,-0.4494 -3.4521,-0.67399 -5.08769,-0.67399 -2.84078,0 -5.03584,0.53261 -6.58534,1.59785 -1.5323,1.06523 -2.29866,2.57988 -2.29866,4.5439 0,1.64778 0.50807,2.89598 1.52387,3.74486 1.03301,0.8322 2.97853,1.50645 5.83651,2.02241 l 3.1506,0.62411 c 3.89101,0.7157 6.75763,1.98075 8.59982,3.79498 1.85944,1.79757 2.78906,4.2108 2.78906,7.24006 0,3.6118 -1.25667,6.34989 -3.77033,8.21404 -2.49644,1.86415 -6.16367,2.79617 -11.00161,2.79617 -1.82498,0 -3.77049,-0.19958 -5.83651,-0.59904 -2.0488,-0.39947 -4.17509,-0.9905 -6.37884,-1.77278 v -5.19282 c 2.11767,1.14845 4.19219,2.01386 6.22378,2.59641 2.03158,0.58254 4.02885,0.87374 5.99157,0.87374 2.97852,0 5.27681,-0.5658 6.89519,-1.6976 1.6184,-1.13182 2.42776,-2.74624 2.42776,-4.84342 0,-1.83087 -0.58533,-3.26231 -1.75608,-4.29426 -1.15352,-1.03195 -3.05604,-1.80598 -5.70742,-2.32194 l -3.17656,-0.59929 c -3.89101,-0.74899 -6.7059,-1.92243 -8.44479,-3.52027 -1.7389,-1.59785 -2.6085,-3.81968 -2.6085,-6.66585 0,-3.29555 1.19665,-5.89225 3.58979,-7.78969 2.41037,-1.89745 5.72454,-2.84606 9.94266,-2.84606 z m 168.81997,0 c 2.30706,0 4.47634,0.29962 6.50793,0.89881 2.04881,0.58255 3.96831,1.46455 5.75887,2.64629 v 5.31787 c -1.75612,-1.5812 -3.63262,-2.76282 -5.62978,-3.54509 -1.97994,-0.78228 -4.08896,-1.1735 -6.32715,-1.1735 -4.40751,0 -7.7822,1.30664 -10.12369,3.91979 -2.3415,2.59651 -3.51215,6.35797 -3.51215,11.28468 0,4.91006 1.17065,8.67177 3.51215,11.28491 2.34149,2.59649 5.71618,3.89472 10.12369,3.89472 2.23819,0 4.34721,-0.39121 6.32715,-1.17349 1.99716,-0.78227 3.87366,-1.96389 5.62978,-3.54509 v 5.26776 c -1.82498,1.19839 -3.76174,2.09721 -5.81055,2.6964 -2.03159,0.59919 -4.18362,0.89881 -6.45625,0.89881 -5.83651,0 -10.43361,-1.72263 -13.7909,-5.168 -3.35729,-3.462 -5.03576,-8.18073 -5.03576,-14.15602 0,-5.99195 1.67847,-10.71044 5.03576,-14.15579 3.35729,-3.46201 7.95439,-5.19306 13.7909,-5.19306 z m -96.56078,0.67399 h 5.21677 v 33.03065 h 18.77498 v 4.24437 h -23.99175 z"
       id="rect3699"
       inkscape:connector-curvature="0" />
    <flowRoot
       xml:space="preserve"
       id="flowRoot3786"
       style="font-style:normal;font-weight:normal;font-size:40px;line-height:1.25;font-family:sans-serif;letter-spacing:0px;word-spacing:0px;fill:#000000;fill-opacity:1;stroke:none"
       transform="scale(0.26458333)"><flowRegion
         id="flowRegion3788"><rect
           id="rect3790"
           width="1217.1428"
           height="405.71429"
           x="-642.85712"
           y="476.80539" /></flowRegion><flowPara
         id="flowPara3792"></flowPara></flowRoot>    <flowRoot
       xml:space="preserve"
       id="flowRoot3839"
       style="font-style:normal;font-weight:normal;font-size:40px;line-height:1.25;font-family:sans-serif;letter-spacing:0px;word-spacing:0px;fill:#000000;fill-opacity:1;stroke:none"
       transform="scale(0.26458333)"><flowRegion
         id="flowRegion3841"><rect
           id="rect3843"
           width="460"
           height="1905.7142"
           x="-685.71429"
           y="-1948.9089" /></flowRegion><flowPara
         id="flowPara3845"></flowPara></flowRoot>    <path
       style="fill:#000000;fill-opacity:1;stroke:#000000;stroke-width:0;stroke-miterlimit:4;stroke-dasharray:none;stroke-opacity:0.99526068"
       d="M 843.33008,22.470703 V 903.66211 H 3830.707 V 22.470703 Z M 1141.2734,309.94141 c 12.2255,0 24.6839,1.1617 37.375,3.48437 12.6912,2.32267 25.674,5.80779 38.9473,10.45313 v 36.12304 c -13.3898,-6.72351 -26.0242,-11.73647 -37.9004,-15.03711 -11.8761,-3.30063 -23.3451,-4.95117 -34.4062,-4.95117 -19.2115,0 -34.0562,3.9126 -44.5352,11.73633 -10.3625,7.82373 -15.543,18.94805 -15.543,33.37305 0,12.10232 3.4352,21.27132 10.3047,27.50586 6.986,6.11228 20.1429,11.06389 39.4707,14.85351 l 21.3067,4.58399 c 26.3138,5.25656 45.6999,14.54631 58.1582,27.87109 12.5747,13.20254 18.8613,30.92901 18.8613,53.17773 0,26.52733 -8.4988,46.63661 -25.498,60.32813 -16.8828,13.69152 -41.6828,20.53711 -74.4004,20.53711 -12.3419,0 -25.4988,-1.46649 -39.4707,-4.40039 -13.8556,-2.9339 -28.2353,-7.27398 -43.1387,-13.01953 v -38.14063 c 14.3212,8.43496 28.3508,14.79171 42.0898,19.07031 13.7391,4.2786 27.2462,6.41797 40.5196,6.41797 20.1428,0 35.6861,-4.15604 46.6308,-12.46875 10.9447,-8.31271 16.418,-20.17125 16.418,-35.57422 0,-13.44703 -3.9595,-23.95982 -11.877,-31.53906 -7.801,-7.57923 -20.667,-13.26507 -38.5976,-17.05469 l -21.4824,-4.40039 c -26.3139,-5.50105 -45.3497,-14.11792 -57.1094,-25.85351 -11.7597,-11.73559 -17.6387,-28.05692 -17.6387,-48.96094 0,-24.20465 8.0912,-43.27492 24.2754,-57.21094 16.3006,-13.93601 38.7142,-20.90429 67.2402,-20.90429 z m 1381.127,0 c 12.2254,0 24.6838,1.1617 37.375,3.48437 12.6912,2.32267 25.672,5.80779 38.9453,10.45313 v 36.12304 c -13.3898,-6.72351 -26.0223,-11.73647 -37.8984,-15.03711 -11.8762,-3.30063 -23.3452,-4.95117 -34.4063,-4.95117 -19.2114,0 -34.0562,3.9126 -44.5351,11.73633 -10.3626,7.82373 -15.543,18.94805 -15.543,33.37305 0,12.10232 3.4332,21.27132 10.3027,27.50586 6.986,6.11228 20.1429,11.06389 39.4707,14.85351 l 21.3086,4.58399 c 26.3138,5.25656 45.6999,14.54631 58.1582,27.87109 12.5748,13.20254 18.8614,30.92901 18.8614,53.17773 0,26.52733 -8.4989,46.63661 -25.4981,60.32813 -16.8828,13.69152 -41.6828,20.53711 -74.4004,20.53711 -12.3419,0 -25.4987,-1.46649 -39.4707,-4.40039 -13.8555,-2.9339 -28.2353,-7.27398 -43.1387,-13.01953 v -38.14063 c 14.3213,8.43496 28.3508,14.79171 42.0899,19.07031 13.7391,4.2786 27.2462,6.41797 40.5195,6.41797 20.1429,0 35.6862,-4.15604 46.6309,-12.46875 10.9447,-8.31271 16.416,-20.17125 16.416,-35.57422 0,-13.44703 -3.9576,-23.95982 -11.875,-31.53906 -7.801,-7.57923 -20.667,-13.26507 -38.5977,-17.05469 l -21.4824,-4.40039 c -26.3138,-5.50105 -45.3496,-14.11792 -57.1094,-25.85351 -11.7597,-11.73559 -17.6406,-28.05692 -17.6406,-48.96094 0,-24.20465 8.0932,-43.27492 24.2774,-57.21094 16.3006,-13.93601 38.7141,-20.90429 67.2402,-20.90429 z m 480.6348,0 c 36.5599,0 65.7844,12.89755 87.6738,38.6914 21.8894,25.67161 32.834,60.14494 32.834,103.41992 0,43.15275 -10.9446,77.62608 -32.834,103.41993 -21.8894,25.6716 -51.1139,38.50781 -87.6738,38.50781 -36.6764,0 -66.0177,-12.83621 -88.0235,-38.50781 -21.8894,-25.67161 -32.834,-60.14494 -32.834,-103.41993 0,-43.27498 10.9446,-77.74831 32.834,-103.41992 22.0058,-25.79385 51.3471,-38.6914 88.0235,-38.6914 z m -1486.9649,4.95117 h 164.8692 v 31.17383 h -129.5899 v 81.04882 h 124.1758 v 31.17188 h -124.1758 v 99.20312 h 132.7344 v 31.17188 h -168.0137 z m 521.3281,0 h 39.9942 l 99.3769,273.76953 h -36.6777 l -23.752,-70.23047 h -117.539 l -23.752,70.23047 h -37.2011 z m 1369.0762,0 h 47.5039 l 115.6192,229.02734 V 314.89258 h 34.2304 v 273.76953 h -47.5039 L 3440.7051,359.63477 v 229.02734 h -34.2305 z m -403.4394,25.12109 c -25.6153,0 -45.9907,10.02592 -61.127,30.07422 -15.0198,20.0483 -22.5312,47.3693 -22.5312,81.96484 0,34.4733 7.5114,61.73491 22.5312,81.78321 15.1363,20.0483 35.5117,30.07226 61.127,30.07226 25.6152,0 45.8739,-10.02396 60.7773,-30.07226 15.0198,-20.0483 22.5293,-47.30991 22.5293,-81.78321 0,-34.59554 -7.5095,-61.91654 -22.5293,-81.96484 -14.9034,-20.0483 -35.1621,-30.07422 -60.7773,-30.07422 z m -945.7266,11.36914 -47.8535,136.24414 h 95.8828 z"
       id="rect4783"
       transform="matrix(0.26458333,0,0,0.26458333,-504.22037,-74.929054)"
       inkscape:connector-curvature="0" />
  </g>
</svg>
