<?xml version="1.0" encoding="UTF-8" standalone="no"?>
<!-- Created with Inkscape (http://www.inkscape.org/) -->

<svg
   xmlns:dc="http://purl.org/dc/elements/1.1/"
   xmlns:cc="http://creativecommons.org/ns#"
   xmlns:rdf="http://www.w3.org/1999/02/22-rdf-syntax-ns#"
   xmlns:svg="http://www.w3.org/2000/svg"
   xmlns="http://www.w3.org/2000/svg"
   xmlns:sodipodi="http://sodipodi.sourceforge.net/DTD/sodipodi-0.dtd"
   xmlns:inkscape="http://www.inkscape.org/namespaces/inkscape"
   width="1016.6274mm"
   height="233.31342mm"
   viewBox="0 0 1016.6274 233.31342"
   version="1.1"
   id="svg8"
   inkscape:version="0.92.2 5c3e80d, 2017-08-06"
   sodipodi:docname="support.svg">
  <defs
     id="defs2" />
  <sodipodi:namedview
     id="base"
     pagecolor="#ffffff"
     bordercolor="#666666"
     borderopacity="1.0"
     inkscape:pageopacity="0.0"
     inkscape:pageshadow="2"
     inkscape:zoom="0.24748737"
     inkscape:cx="2065.5415"
     inkscape:cy="82.983915"
     inkscape:document-units="mm"
     inkscape:current-layer="layer1"
     showgrid="false"
     inkscape:window-width="1820"
     inkscape:window-height="965"
     inkscape:window-x="18"
     inkscape:window-y="0"
     inkscape:window-maximized="0"
     fit-margin-top="0"
     fit-margin-left="0"
     fit-margin-right="0"
     fit-margin-bottom="0" />
  <metadata
     id="metadata5">
    <rdf:RDF>
      <cc:Work
         rdf:about="">
        <dc:format>image/svg+xml</dc:format>
        <dc:type
           rdf:resource="http://purl.org/dc/dcmitype/StillImage" />
        <dc:title></dc:title>
      </cc:Work>
    </rdf:RDF>
  </metadata>
  <g
     inkscape:label="Layer 1"
     inkscape:groupmode="layer"
     id="layer1"
     transform="translate(507.30656,68.983681)">
    <path
       style="fill:#000000;fill-opacity:1;stroke:#000000;stroke-width:0.12476683;stroke-opacity:0.99526068"
       d="M -507.24418,-68.881433 V 164.26735 h 238.44072 V -68.881433 Z m 22.57224,23.724302 h 13.03914 c 3.89152,0 6.89014,0.828991 8.99593,2.486769 2.10581,1.657777 3.15867,4.014858 3.15867,7.071388 0,2.365787 -0.53902,4.248044 -1.61717,5.646795 -1.07819,1.39875 -2.66168,2.270797 -4.75065,2.616168 2.51013,0.552592 4.45587,1.709484 5.83726,3.470874 1.39826,1.744121 2.09729,3.928734 2.09729,6.55355 0,3.453705 -1.14558,6.121657 -3.4367,8.0039256 -2.2911,1.8822687 -5.55084,2.823399 -9.77928,2.823399 h -13.54449 z m 94.63473,0 h 5.78654 l 14.37854,38.6728686 h -5.30668 l -3.4367,-9.9208096 h -17.00642 l -3.4367,9.9208096 h -5.38235 z m 75.07588,0 h 5.10436 v 34.269456 h 18.37103 v 4.4034126 h -23.47539 z m -164.60602,4.299797 v 11.656247 h 7.55561 c 2.49326,0 4.34629,-0.474822 5.55923,-1.424592 1.22979,-0.967036 1.84474,-2.4348 1.84474,-4.403412 0,-1.951343 -0.61495,-3.410591 -1.84474,-4.377628 -1.21294,-0.967037 -3.06597,-1.450615 -5.55923,-1.450615 z m 92.41079,0.854947 -6.92386,19.24571 h 13.87295 z m -92.41079,15.049528 v 14.168799 h 8.18735 c 2.74596,0 4.77576,-0.578687 6.08979,-1.735678 1.33085,-1.17426 1.99638,-2.96141 1.99638,-5.361733 0,-2.417594 -0.66553,-4.196229 -1.99638,-5.33595 -1.31403,-1.156993 -3.34383,-1.735438 -6.08979,-1.735438 z m -6.33548,52.696365 h 5.41004 v 34.269213 h 19.47114 v 4.403654 h -24.88118 z m 82.91908,0 h 25.28265 v 4.403412 h -19.8726 v 11.449014 h 19.04245 v 4.403411 h -19.04245 v 14.013376 h 20.35467 v 4.403654 h -25.76472 z m 81.55295,0 h 33.82641 v 4.403412 h -14.19459 v 34.269455 h -5.43699 V 32.146918 h -14.19483 z m -150.7997,73.878714 c 1.80779,0 3.65002,0.15798 5.52666,0.47423 1.87664,0.31624 3.79639,0.79066 5.75911,1.42314 v 4.91835 c -1.97993,-0.91543 -3.84792,-1.59785 -5.60405,-2.04724 -1.75611,-0.4494 -3.4521,-0.67399 -5.08769,-0.67399 -2.84078,0 -5.03584,0.53261 -6.58534,1.59785 -1.5323,1.06523 -2.29866,2.57988 -2.29866,4.5439 0,1.64778 0.50807,2.89598 1.52387,3.74486 1.03301,0.8322 2.97853,1.50645 5.83651,2.02241 l 3.1506,0.62411 c 3.89101,0.7157 6.75763,1.98075 8.59982,3.79498 1.85944,1.79757 2.78906,4.2108 2.78906,7.24006 0,3.6118 -1.25667,6.34989 -3.77033,8.21404 -2.49644,1.86415 -6.16367,2.79617 -11.00161,2.79617 -1.82498,0 -3.77049,-0.19958 -5.83651,-0.59904 -2.0488,-0.39947 -4.17509,-0.9905 -6.37884,-1.77278 v -5.19282 c 2.11767,1.14845 4.19219,2.01386 6.22378,2.59641 2.03158,0.58254 4.02885,0.87374 5.99157,0.87374 2.97852,0 5.27681,-0.5658 6.89519,-1.6976 1.6184,-1.13182 2.42776,-2.74624 2.42776,-4.84342 0,-1.83087 -0.58533,-3.26231 -1.75608,-4.29426 -1.15352,-1.03195 -3.05604,-1.80598 -5.70742,-2.32194 l -3.17656,-0.59929 c -3.89101,-0.74899 -6.7059,-1.92243 -8.44479,-3.52027 -1.7389,-1.59785 -2.6085,-3.81968 -2.6085,-6.66585 0,-3.29555 1.19665,-5.89225 3.58979,-7.78969 2.41037,-1.89745 5.72454,-2.84606 9.94266,-2.84606 z m 168.81997,0 c 2.30706,0 4.47634,0.29962 6.50793,0.89881 2.04881,0.58255 3.96831,1.46455 5.75887,2.64629 v 5.31787 c -1.75612,-1.5812 -3.63262,-2.76282 -5.62978,-3.54509 -1.97994,-0.78228 -4.08896,-1.1735 -6.32715,-1.1735 -4.40751,0 -7.7822,1.30664 -10.12369,3.91979 -2.3415,2.59651 -3.51215,6.35797 -3.51215,11.28468 0,4.91006 1.17065,8.67177 3.51215,11.28491 2.34149,2.59649 5.71618,3.89472 10.12369,3.89472 2.23819,0 4.34721,-0.39121 6.32715,-1.17349 1.99716,-0.78227 3.87366,-1.96389 5.62978,-3.54509 v 5.26776 c -1.82498,1.19839 -3.76174,2.09721 -5.81055,2.6964 -2.03159,0.59919 -4.18362,0.89881 -6.45625,0.89881 -5.83651,0 -10.43361,-1.72263 -13.7909,-5.168 -3.35729,-3.462 -5.03576,-8.18073 -5.03576,-14.15602 0,-5.99195 1.67847,-10.71044 5.03576,-14.15579 3.35729,-3.46201 7.95439,-5.19306 13.7909,-5.19306 z m -96.56078,0.67399 h 5.21677 v 33.03065 h 18.77498 v 4.24437 h -23.99175 z"
       id="rect3699"
       inkscape:connector-curvature="0" />
    <flowRoot
       xml:space="preserve"
       id="flowRoot3786"
       style="font-style:normal;font-weight:normal;font-size:40px;line-height:1.25;font-family:sans-serif;letter-spacing:0px;word-spacing:0px;fill:#000000;fill-opacity:1;stroke:none"
       transform="scale(0.26458333)"><flowRegion
         id="flowRegion3788"><rect
           id="rect3790"
           width="1217.1428"
           height="405.71429"
           x="-642.85712"
           y="476.80539" /></flowRegion><flowPara
         id="flowPara3792"></flowPara></flowRoot>    <flowRoot
       xml:space="preserve"
       id="flowRoot3839"
       style="font-style:normal;font-weight:normal;font-size:40px;line-height:1.25;font-family:sans-serif;letter-spacing:0px;word-spacing:0px;fill:#000000;fill-opacity:1;stroke:none"
       transform="scale(0.26458333)"><flowRegion
         id="flowRegion3841"><rect
           id="rect3843"
           width="460"
           height="1905.7142"
           x="-685.71429"
           y="-1948.9089" /></flowRegion><flowPara
         id="flowPara3845"></flowPara></flowRoot>    <path
       style="fill:#000000;fill-opacity:1;stroke:#000000;stroke-width:0;stroke-miterlimit:4;stroke-dasharray:none;stroke-opacity:0.99526068"
       d="M 856.98242 0.38671875 L 856.98242 881.81445 L 3846.6602 881.81445 L 3846.6602 0.38671875 L 856.98242 0.38671875 z M 1071.5371 297.40625 C 1082.6705 297.40625 1094.0166 298.51379 1105.5742 300.72656 C 1117.1318 302.93934 1128.9552 306.25804 1141.043 310.68359 L 1141.043 345.09766 C 1128.8492 338.69225 1117.3446 333.91791 1106.5293 330.77344 C 1095.714 327.62897 1085.2684 326.05664 1075.1953 326.05664 C 1057.6999 326.05664 1044.1816 329.78277 1034.6387 337.23633 C 1025.2018 344.68989 1020.4824 355.28874 1020.4824 369.03125 C 1020.4824 380.56098 1023.6113 389.29482 1029.8672 395.23438 C 1036.2292 401.05747 1048.2111 405.77445 1065.8125 409.38477 L 1085.2168 413.75195 C 1109.1802 418.75982 1126.8342 427.61034 1138.1797 440.30469 C 1149.6312 452.88257 1155.3574 469.77073 1155.3574 490.9668 C 1155.3574 516.23903 1147.6175 535.39767 1132.1367 548.44141 C 1116.762 561.48514 1094.1761 568.00586 1064.3809 568.00586 C 1053.1414 568.00586 1041.1595 566.60954 1028.4355 563.81445 C 1015.8177 561.01937 1002.7226 556.88387 989.15039 551.41016 L 989.15039 515.07422 C 1002.1924 523.11009 1014.9706 529.16602 1027.4824 533.24219 C 1039.9943 537.31835 1052.2931 539.35742 1064.3809 539.35742 C 1082.7245 539.35742 1096.8806 535.39597 1106.8477 527.47656 C 1116.8147 519.55715 1121.7969 508.26209 1121.7969 493.58789 C 1121.7969 480.77708 1118.1926 470.7597 1110.9824 463.53906 C 1103.8782 456.31842 1092.1611 450.90329 1075.832 447.29297 L 1056.2695 443.10156 C 1032.3061 437.86078 1014.9691 429.64909 1004.2598 418.46875 C 993.55046 407.28841 988.19727 391.74116 988.19727 371.82617 C 988.19727 348.76671 995.56614 330.59892 1010.3047 317.32227 C 1025.1493 304.04561 1045.5591 297.40625 1071.5371 297.40625 z M 2763.1836 297.40625 C 2796.4779 297.40625 2823.0932 309.69411 2843.0273 334.26758 C 2862.9615 358.72458 2872.9277 391.56545 2872.9277 432.79297 C 2872.9277 473.90403 2862.9615 506.74685 2843.0273 531.32031 C 2823.0932 555.77732 2796.4779 568.00586 2763.1836 568.00586 C 2729.7833 568.00586 2703.0636 555.77732 2683.0234 531.32031 C 2663.0893 506.86331 2653.123 474.02049 2653.123 432.79297 C 2653.123 391.56545 2663.0893 358.72458 2683.0234 334.26758 C 2703.0636 309.69411 2729.7833 297.40625 2763.1836 297.40625 z M 1409.1992 302.12305 L 1441.4863 302.12305 L 1441.4863 460.57031 C 1441.4863 488.52117 1446.0994 508.66871 1455.3242 521.01367 C 1464.5491 533.24217 1479.4994 539.35742 1500.1758 539.35742 C 1520.7461 539.35742 1535.6443 533.24217 1544.8691 521.01367 C 1554.094 508.66871 1558.7051 488.52117 1558.7051 460.57031 L 1558.7051 302.12305 L 1590.9922 302.12305 L 1590.9922 464.9375 C 1590.9922 498.94438 1583.3044 524.62374 1567.9297 541.97656 C 1552.661 559.32939 1530.077 568.00586 1500.1758 568.00586 C 1470.1685 568.00586 1447.4763 559.32939 1432.1016 541.97656 C 1416.8328 524.62374 1409.1992 498.94438 1409.1992 464.9375 L 1409.1992 302.12305 z M 1858.832 302.12305 L 1931.3574 302.12305 C 1957.9716 302.12305 1978.0645 308.7624 1991.6367 322.03906 C 2005.3149 335.19926 2012.1543 354.53195 2012.1543 380.03711 C 2012.1543 405.77519 2005.3149 425.22457 1991.6367 438.38477 C 1978.0645 451.54496 1957.9716 458.125 1931.3574 458.125 L 1890.959 458.125 L 1890.959 562.93945 L 1858.832 562.93945 L 1858.832 302.12305 z M 2262.8164 302.12305 L 2335.3418 302.12305 C 2361.956 302.12305 2382.0489 308.7624 2395.6211 322.03906 C 2409.2993 335.19926 2416.1387 354.53195 2416.1387 380.03711 C 2416.1387 405.77519 2409.2993 425.22457 2395.6211 438.38477 C 2382.0489 451.54496 2361.956 458.125 2335.3418 458.125 L 2294.9434 458.125 L 2294.9434 562.93945 L 2262.8164 562.93945 L 2262.8164 302.12305 z M 3130.5879 302.12305 L 3203.1152 302.12305 C 3230.2596 302.12305 3250.511 308.35498 3263.8711 320.81641 C 3277.2312 333.27783 3283.9121 352.08641 3283.9121 377.24219 C 3283.9121 393.66332 3280.4122 407.28818 3273.4141 418.11914 C 3266.5219 428.9501 3256.4494 436.46167 3243.1953 440.6543 C 3250.0874 443.21646 3256.7664 448.69091 3263.2344 457.07617 C 3269.8084 465.46143 3276.383 476.99181 3282.957 491.66602 L 3315.5625 562.93945 L 3281.0488 562.93945 L 3250.6699 496.0332 C 3242.8235 478.56392 3235.1899 466.97617 3227.7676 461.26953 C 3220.4513 455.5629 3210.431 452.70898 3197.707 452.70898 L 3162.7168 452.70898 L 3162.7168 562.93945 L 3130.5879 562.93945 L 3130.5879 302.12305 z M 3531.5508 302.12305 L 3732.4297 302.12305 L 3732.4297 331.82227 L 3648.1328 331.82227 L 3648.1328 562.93945 L 3615.8477 562.93945 L 3615.8477 331.82227 L 3531.5508 331.82227 L 3531.5508 302.12305 z M 2763.1836 326.05664 C 2739.8564 326.05664 2721.3018 335.60728 2707.5176 354.70703 C 2693.8394 373.80679 2687 399.83425 2687 432.79297 C 2687 465.63523 2693.8394 491.60728 2707.5176 510.70703 C 2721.3018 529.80679 2739.8564 539.35742 2763.1836 539.35742 C 2786.5108 539.35742 2804.961 529.80679 2818.5332 510.70703 C 2832.2114 491.60728 2839.0508 465.63523 2839.0508 432.79297 C 2839.0508 399.83425 2832.2114 373.80679 2818.5332 354.70703 C 2804.961 335.60728 2786.5108 326.05664 2763.1836 326.05664 z M 1890.959 331.12305 L 1890.959 429.125 L 1931.3574 429.125 C 1946.308 429.125 1957.8648 424.87477 1966.0293 416.37305 C 1974.1938 407.87133 1978.2773 395.75947 1978.2773 380.03711 C 1978.2773 364.43121 1974.1938 352.37672 1966.0293 343.875 C 1957.8648 335.37328 1946.308 331.12305 1931.3574 331.12305 L 1890.959 331.12305 z M 2294.9434 331.12305 L 2294.9434 429.125 L 2335.3418 429.125 C 2350.2924 429.125 2361.8511 424.87477 2370.0156 416.37305 C 2378.1801 407.87133 2382.2617 395.75947 2382.2617 380.03711 C 2382.2617 364.43121 2378.1801 352.37672 2370.0156 343.875 C 2361.8511 335.37328 2350.2924 331.12305 2335.3418 331.12305 L 2294.9434 331.12305 z M 3162.7168 331.12305 L 3162.7168 423.70898 L 3203.1152 423.70898 C 3218.596 423.70898 3230.259 419.80881 3238.1055 412.00586 C 3246.0579 404.08645 3250.0332 392.4987 3250.0332 377.24219 C 3250.0332 361.98568 3246.0579 350.51266 3238.1055 342.82617 C 3230.259 335.02322 3218.596 331.12305 3203.1152 331.12305 L 3162.7168 331.12305 z "
       transform="matrix(0.26458333,0,0,0.26458333,-507.30656,-68.983681)"
       id="rect4834" />
  </g>
</svg>
