<?xml version="1.0" encoding="UTF-8" standalone="no"?>
<!-- Created with Inkscape (http://www.inkscape.org/) -->

<svg
   xmlns:dc="http://purl.org/dc/elements/1.1/"
   xmlns:cc="http://creativecommons.org/ns#"
   xmlns:rdf="http://www.w3.org/1999/02/22-rdf-syntax-ns#"
   xmlns:svg="http://www.w3.org/2000/svg"
   xmlns="http://www.w3.org/2000/svg"
   xmlns:sodipodi="http://sodipodi.sourceforge.net/DTD/sodipodi-0.dtd"
   xmlns:inkscape="http://www.inkscape.org/namespaces/inkscape"
   width="2221.3362mm"
   height="233.27354mm"
   viewBox="0 0 2221.3362 233.27355"
   version="1.1"
   id="svg8"
   inkscape:version="0.92.2 5c3e80d, 2017-08-06"
   sodipodi:docname="supportFullscreen.svg">
  <defs
     id="defs2" />
  <sodipodi:namedview
     id="base"
     pagecolor="#ffffff"
     bordercolor="#666666"
     borderopacity="1.0"
     inkscape:pageopacity="0.0"
     inkscape:pageshadow="2"
     inkscape:zoom="0.0875"
     inkscape:cx="4706.4787"
     inkscape:cy="-2099.9243"
     inkscape:document-units="mm"
     inkscape:current-layer="layer1"
     showgrid="false"
     inkscape:window-width="1718"
     inkscape:window-height="898"
     inkscape:window-x="1646"
     inkscape:window-y="15"
     inkscape:window-maximized="0"
     fit-margin-top="0"
     fit-margin-left="0"
     fit-margin-right="0"
     fit-margin-bottom="0" />
  <metadata
     id="metadata5">
    <rdf:RDF>
      <cc:Work
         rdf:about="">
        <dc:format>image/svg+xml</dc:format>
        <dc:type
           rdf:resource="http://purl.org/dc/dcmitype/StillImage" />
        <dc:title></dc:title>
      </cc:Work>
    </rdf:RDF>
  </metadata>
  <g
     inkscape:label="Layer 1"
     inkscape:groupmode="layer"
     id="layer1"
     transform="translate(507.30656,68.943816)">
    <path
       style="fill:#000000;fill-opacity:1;stroke:#000000;stroke-width:0.12476683;stroke-opacity:0.99526068"
       d="M -507.24418,-68.881433 V 164.26735 h 238.44072 V -68.881433 Z m 22.57224,23.724302 h 13.03914 c 3.89152,0 6.89014,0.828991 8.99593,2.486769 2.10581,1.657777 3.15867,4.014858 3.15867,7.071388 0,2.365787 -0.53902,4.248044 -1.61717,5.646795 -1.07819,1.39875 -2.66168,2.270797 -4.75065,2.616168 2.51013,0.552592 4.45587,1.709484 5.83726,3.470874 1.39826,1.744121 2.09729,3.928734 2.09729,6.55355 0,3.453705 -1.14558,6.121657 -3.4367,8.0039256 -2.2911,1.8822687 -5.55084,2.823399 -9.77928,2.823399 h -13.54449 z m 94.63473,0 h 5.78654 l 14.37854,38.6728686 h -5.30668 l -3.4367,-9.9208096 h -17.00642 l -3.4367,9.9208096 h -5.38235 z m 75.07588,0 h 5.10436 v 34.269456 h 18.37103 v 4.4034126 h -23.47539 z m -164.60602,4.299797 v 11.656247 h 7.55561 c 2.49326,0 4.34629,-0.474822 5.55923,-1.424592 1.22979,-0.967036 1.84474,-2.4348 1.84474,-4.403412 0,-1.951343 -0.61495,-3.410591 -1.84474,-4.377628 -1.21294,-0.967037 -3.06597,-1.450615 -5.55923,-1.450615 z m 92.41079,0.854947 -6.92386,19.24571 h 13.87295 z m -92.41079,15.049528 v 14.168799 h 8.18735 c 2.74596,0 4.77576,-0.578687 6.08979,-1.735678 1.33085,-1.17426 1.99638,-2.96141 1.99638,-5.361733 0,-2.417594 -0.66553,-4.196229 -1.99638,-5.33595 -1.31403,-1.156993 -3.34383,-1.735438 -6.08979,-1.735438 z m -6.33548,52.696365 h 5.41004 v 34.269213 h 19.47114 v 4.403654 h -24.88118 z m 82.91908,0 h 25.28265 v 4.403412 h -19.8726 v 11.449014 h 19.04245 v 4.403411 h -19.04245 v 14.013376 h 20.35467 v 4.403654 h -25.76472 z m 81.55295,0 h 33.82641 v 4.403412 h -14.19459 v 34.269455 h -5.43699 V 32.146918 h -14.19483 z m -150.7997,73.878714 c 1.80779,0 3.65002,0.15798 5.52666,0.47423 1.87664,0.31624 3.79639,0.79066 5.75911,1.42314 v 4.91835 c -1.97993,-0.91543 -3.84792,-1.59785 -5.60405,-2.04724 -1.75611,-0.4494 -3.4521,-0.67399 -5.08769,-0.67399 -2.84078,0 -5.03584,0.53261 -6.58534,1.59785 -1.5323,1.06523 -2.29866,2.57988 -2.29866,4.5439 0,1.64778 0.50807,2.89598 1.52387,3.74486 1.03301,0.8322 2.97853,1.50645 5.83651,2.02241 l 3.1506,0.62411 c 3.89101,0.7157 6.75763,1.98075 8.59982,3.79498 1.85944,1.79757 2.78906,4.2108 2.78906,7.24006 0,3.6118 -1.25667,6.34989 -3.77033,8.21404 -2.49644,1.86415 -6.16367,2.79617 -11.00161,2.79617 -1.82498,0 -3.77049,-0.19958 -5.83651,-0.59904 -2.0488,-0.39947 -4.17509,-0.9905 -6.37884,-1.77278 v -5.19282 c 2.11767,1.14845 4.19219,2.01386 6.22378,2.59641 2.03158,0.58254 4.02885,0.87374 5.99157,0.87374 2.97852,0 5.27681,-0.5658 6.89519,-1.6976 1.6184,-1.13182 2.42776,-2.74624 2.42776,-4.84342 0,-1.83087 -0.58533,-3.26231 -1.75608,-4.29426 -1.15352,-1.03195 -3.05604,-1.80598 -5.70742,-2.32194 l -3.17656,-0.59929 c -3.89101,-0.74899 -6.7059,-1.92243 -8.44479,-3.52027 -1.7389,-1.59785 -2.6085,-3.81968 -2.6085,-6.66585 0,-3.29555 1.19665,-5.89225 3.58979,-7.78969 2.41037,-1.89745 5.72454,-2.84606 9.94266,-2.84606 z m 168.81997,0 c 2.30706,0 4.47634,0.29962 6.50793,0.89881 2.04881,0.58255 3.96831,1.46455 5.75887,2.64629 v 5.31787 c -1.75612,-1.5812 -3.63262,-2.76282 -5.62978,-3.54509 -1.97994,-0.78228 -4.08896,-1.1735 -6.32715,-1.1735 -4.40751,0 -7.7822,1.30664 -10.12369,3.91979 -2.3415,2.59651 -3.51215,6.35797 -3.51215,11.28468 0,4.91006 1.17065,8.67177 3.51215,11.28491 2.34149,2.59649 5.71618,3.89472 10.12369,3.89472 2.23819,0 4.34721,-0.39121 6.32715,-1.17349 1.99716,-0.78227 3.87366,-1.96389 5.62978,-3.54509 v 5.26776 c -1.82498,1.19839 -3.76174,2.09721 -5.81055,2.6964 -2.03159,0.59919 -4.18362,0.89881 -6.45625,0.89881 -5.83651,0 -10.43361,-1.72263 -13.7909,-5.168 -3.35729,-3.462 -5.03576,-8.18073 -5.03576,-14.15602 0,-5.99195 1.67847,-10.71044 5.03576,-14.15579 3.35729,-3.46201 7.95439,-5.19306 13.7909,-5.19306 z m -96.56078,0.67399 h 5.21677 v 33.03065 h 18.77498 v 4.24437 h -23.99175 z"
       id="rect3699"
       inkscape:connector-curvature="0" />
    <flowRoot
       xml:space="preserve"
       id="flowRoot3786"
       style="font-style:normal;font-weight:normal;font-size:40px;line-height:1.25;font-family:sans-serif;letter-spacing:0px;word-spacing:0px;fill:#000000;fill-opacity:1;stroke:none"
       transform="scale(0.26458333)"><flowRegion
         id="flowRegion3788"><rect
           id="rect3790"
           width="1217.1428"
           height="405.71429"
           x="-642.85712"
           y="476.80539" /></flowRegion><flowPara
         id="flowPara3792"></flowPara></flowRoot>    <flowRoot
       xml:space="preserve"
       id="flowRoot3839"
       style="font-style:normal;font-weight:normal;font-size:40px;line-height:1.25;font-family:sans-serif;letter-spacing:0px;word-spacing:0px;fill:#000000;fill-opacity:1;stroke:none"
       transform="scale(0.26458333)"><flowRegion
         id="flowRegion3841"><rect
           id="rect3843"
           width="460"
           height="1905.7142"
           x="-685.71429"
           y="-1948.9089" /></flowRegion><flowPara
         id="flowPara3845"></flowPara></flowRoot>    <path
       style="fill:#000000;fill-opacity:1;stroke:#000000;stroke-width:0;stroke-miterlimit:4;stroke-dasharray:none;stroke-opacity:0.99526068"
       d="M 855.42773,0.38671875 V 881.81445 H 8395.6016 V 0.38671875 Z M 2329.4746,257.78906 c 18.5621,0 37.4788,1.68451 56.7481,5.05274 19.2692,3.36823 38.9796,8.41979 59.1328,15.15625 v 52.38476 c -20.3299,-9.75014 -39.5113,-17.01825 -57.543,-21.80469 -18.0317,-4.78643 -35.444,-7.17968 -52.2383,-7.17968 -29.169,0 -51.7088,5.67196 -67.6191,17.01758 -15.7336,11.34561 -23.5996,27.478 -23.5996,48.39648 0,17.55025 5.2144,30.84568 15.6445,39.88672 10.6069,8.86376 30.5839,16.04353 59.9297,21.53906 l 32.3496,6.64844 c 39.9527,7.62283 69.3871,21.09497 88.3027,40.41797 19.0925,19.14572 28.6387,44.85114 28.6387,77.11523 0,38.46873 -12.9047,67.6315 -38.7148,87.48633 -25.6334,19.85483 -63.2873,29.78125 -112.9629,29.78125 -18.7389,0 -38.7159,-2.12821 -59.9297,-6.38281 -21.037,-4.25461 -42.87,-10.54697 -65.4981,-18.87891 v -55.31055 c 21.7442,12.232 43.046,21.45162 63.9063,27.65625 20.8602,6.20464 41.3683,9.30664 61.5215,9.30664 30.5832,0 54.1833,-6.02731 70.8008,-18.08203 16.6174,-12.05471 24.9257,-29.25121 24.9257,-51.58789 0,-19.50027 -6.0101,-34.74526 -18.0312,-45.73632 -11.8444,-10.99107 -31.3791,-19.23494 -58.6035,-24.73047 l -32.6172,-6.38086 c -39.9527,-7.97739 -68.856,-20.47572 -86.711,-37.49414 -17.8549,-17.01843 -26.7812,-40.68399 -26.7812,-70.99805 0,-35.1005 12.2847,-62.75547 36.8574,-82.96484 24.7495,-20.20938 58.7803,-30.31446 102.0918,-30.31446 z m 2820.377,0 c 55.5094,0 99.8822,18.70235 133.1172,56.10742 33.2349,37.2278 49.8515,87.21918 49.8515,149.97461 0,62.57816 -16.6166,112.56954 -49.8515,149.97461 -33.235,37.2278 -77.6078,55.8418 -133.1172,55.8418 -55.6863,0 -100.2348,-18.614 -133.6465,-55.8418 -33.235,-37.2278 -49.8535,-87.21917 -49.8535,-149.97461 0,-62.75543 16.6185,-112.74681 49.8535,-149.97461 33.4117,-37.40507 77.9602,-56.10742 133.6465,-56.10742 z m -2257.4141,7.17969 h 53.8301 v 241.18164 c 0,42.54606 7.6883,73.21469 23.0683,92.00586 15.3801,18.6139 40.3069,27.92187 74.7793,27.92187 34.2957,0 59.1337,-9.30797 74.5137,-27.92187 15.38,-18.79117 23.0703,-49.4598 23.0703,-92.00586 V 264.96875 h 53.8301 v 247.83008 c 0,51.76437 -12.8178,90.85357 -38.4512,117.26758 -25.4566,26.41401 -63.1104,39.62109 -112.9629,39.62109 -50.0292,0 -87.8607,-13.20708 -113.4941,-39.62109 -25.4566,-26.41401 -38.1836,-65.50321 -38.1836,-117.26758 z m 749.6426,0 h 120.9179 c 44.3723,0 77.872,10.10508 100.5,30.31445 22.8049,20.0321 34.209,49.45798 34.209,88.28125 0,39.17783 -11.4041,68.78431 -34.209,88.81641 -22.628,20.0321 -56.1277,30.04687 -100.5,30.04687 h -67.3535 v 159.54883 h -53.5644 z m 673.539,0 h 120.918 c 44.3722,0 77.8719,10.10508 100.5,30.31445 22.8049,20.0321 34.207,49.45798 34.207,88.28125 0,39.17783 -11.4021,68.78431 -34.207,88.81641 -22.6281,20.0321 -56.1278,30.04687 -100.5,30.04687 h -67.3535 v 159.54883 h -53.5645 z m 1446.7813,0 h 120.918 c 45.2561,0 79.0223,9.48272 101.2968,28.45117 22.2745,18.96845 33.4121,47.59918 33.4121,85.89063 0,24.9958 -5.8343,45.73801 -17.5019,62.22461 -11.4908,16.48659 -28.2851,27.92082 -50.3828,34.30273 11.4908,3.90006 22.6284,12.23032 33.4121,24.99414 10.9605,12.76382 21.9204,30.31567 32.8808,52.65235 l 54.3614,108.49218 h -57.543 l -50.6484,-101.8457 c -13.0819,-26.59129 -25.8109,-44.22953 -38.1856,-52.91602 -12.1979,-8.68648 -28.9034,-13.02929 -50.1172,-13.02929 h -58.3379 v 167.79101 h -53.5644 z m 668.5,0 h 334.9141 v 45.20508 h -140.543 v 351.80273 h -53.8301 V 310.17383 h -140.541 z m -1281.0488,36.42969 c -38.892,0 -69.829,14.53623 -92.8106,43.60937 -22.8048,29.07314 -34.207,68.69439 -34.207,118.86328 0,49.99162 11.4022,89.52452 34.207,118.59766 22.9816,29.07314 53.9186,43.60938 92.8106,43.60937 38.892,0 69.6512,-14.53623 92.2793,-43.60937 22.8048,-29.07314 34.207,-68.60604 34.207,-118.59766 0,-50.16889 -11.4022,-89.79014 -34.207,-118.86328 -22.6281,-29.07314 -53.3873,-43.60937 -92.2793,-43.60937 z m -1454.2071,7.71094 v 149.17773 h 67.3535 c 24.9263,0 44.1964,-6.47102 57.8086,-19.41211 13.6122,-12.94109 20.418,-31.37839 20.418,-55.31055 0,-23.75488 -6.8058,-42.10187 -20.418,-55.04297 -13.6122,-12.94109 -32.8823,-19.4121 -57.8086,-19.4121 z m 673.5391,0 v 149.17773 h 67.3535 c 24.9262,0 44.1945,-6.47102 57.8067,-19.41211 13.6121,-12.94109 20.4199,-31.37839 20.4199,-55.31055 0,-23.75488 -6.8078,-42.10187 -20.4199,-55.04297 -13.6122,-12.94109 -32.8805,-19.4121 -57.8067,-19.4121 z m 1446.7812,0 v 140.93359 h 67.3536 c 25.8101,0 45.256,-5.93897 58.3378,-17.81641 13.2587,-12.05471 19.8887,-29.69296 19.8887,-52.91601 0,-23.22306 -6.63,-40.6846 -19.8887,-52.38477 -13.0818,-11.87744 -32.5277,-17.8164 -58.3378,-17.8164 z"
       transform="matrix(0.26458333,0,0,0.26458333,-507.30656,-68.983681)"
       id="rect4871"
       inkscape:connector-curvature="0" />
    <path
       style="fill:#000000;fill-opacity:1;stroke:#000000;stroke-width:0.12476683;stroke-opacity:0.99526068"
       d="m -503.83128,379.16955 v 233.14879 h 238.44071 V 379.16955 Z m 22.5722,23.72431 h 13.0392 c 3.8915,0 6.8901,0.82899 8.9959,2.48677 2.1058,1.65777 3.1587,4.01485 3.1587,7.07138 0,2.36579 -0.5391,4.24805 -1.6172,5.6468 -1.0782,1.39875 -2.6617,2.2708 -4.7507,2.61617 2.5102,0.55259 4.4559,1.70948 5.8373,3.47087 1.3983,1.74412 2.0973,3.92874 2.0973,6.55355 0,3.45371 -1.1456,6.12166 -3.4367,8.00393 -2.2911,1.88227 -5.5508,2.8234 -9.7793,2.8234 h -13.5445 z m 94.6348,0 h 5.7865 l 14.3785,38.67287 h -5.3066 l -3.4367,-9.92081 h -17.0065 l -3.4367,9.92081 h -5.3823 z m 75.07584,0 h 5.10436 v 34.26945 h 18.37102 v 4.40342 h -23.47538 z m -164.60604,4.2998 v 11.65624 h 7.5556 c 2.4933,0 4.3463,-0.47482 5.5593,-1.42459 1.2297,-0.96704 1.8447,-2.4348 1.8447,-4.40341 0,-1.95134 -0.615,-3.41059 -1.8447,-4.37763 -1.213,-0.96704 -3.066,-1.45061 -5.5593,-1.45061 z m 92.4108,0.85494 -6.9239,19.24571 h 13.873 z m -92.4108,15.04953 v 14.1688 h 8.1874 c 2.7459,0 4.7757,-0.57869 6.0898,-1.73568 1.3308,-1.17426 1.9963,-2.96141 1.9963,-5.36173 0,-2.4176 -0.6655,-4.19623 -1.9963,-5.33595 -1.3141,-1.15699 -3.3439,-1.73544 -6.0898,-1.73544 z m -6.3355,52.69636 h 5.4101 v 34.26922 h 19.4711 v 4.40365 h -24.8812 z m 82.9191,0 h 25.2827 v 4.40342 h -19.8726 v 11.44901 h 19.0424 v 4.40341 h -19.0424 v 14.01338 h 20.3546 v 4.40365 h -25.7647 z m 81.55297,0 h 33.82641 v 4.40342 h -14.1946 v 34.26945 h -5.43698 v -34.26945 h -14.19483 z m -150.79967,73.87872 c 1.8078,0 3.65,0.15798 5.5266,0.47423 1.8767,0.31624 3.7964,0.79066 5.7591,1.42314 v 4.91835 c -1.9799,-0.91543 -3.8479,-1.59785 -5.604,-2.04724 -1.7561,-0.4494 -3.4521,-0.67399 -5.0877,-0.67399 -2.8408,0 -5.0358,0.53261 -6.5853,1.59785 -1.5323,1.06523 -2.2987,2.57988 -2.2987,4.5439 0,1.64778 0.5081,2.89598 1.5239,3.74486 1.033,0.8322 2.9785,1.50645 5.8365,2.02241 l 3.1506,0.62411 c 3.891,0.7157 6.7576,1.98075 8.5998,3.79498 1.8594,1.79757 2.7891,4.2108 2.7891,7.24006 0,3.6118 -1.2567,6.34989 -3.7704,8.21404 -2.4964,1.86415 -6.1636,2.79617 -11.0016,2.79617 -1.825,0 -3.7705,-0.19958 -5.8365,-0.59904 -2.0488,-0.39947 -4.1751,-0.9905 -6.3788,-1.77278 v -5.19282 c 2.1176,1.14845 4.1922,2.01386 6.2237,2.59641 2.0316,0.58254 4.0289,0.87374 5.9916,0.87374 2.9785,0 5.2768,-0.5658 6.8952,-1.6976 1.6184,-1.13182 2.4278,-2.74624 2.4278,-4.84342 0,-1.83087 -0.5854,-3.26231 -1.7561,-4.29426 -1.1535,-1.03195 -3.0561,-1.80598 -5.7074,-2.32194 l -3.1766,-0.59929 c -3.891,-0.74899 -6.7059,-1.92243 -8.4448,-3.52027 -1.7389,-1.59785 -2.6085,-3.81968 -2.6085,-6.66585 0,-3.29555 1.1967,-5.89225 3.5898,-7.78969 2.4104,-1.89745 5.7245,-2.84606 9.9427,-2.84606 z m 168.81994,0 c 2.30705,0 4.47634,0.29962 6.50793,0.89881 2.04881,0.58255 3.9683,1.46455 5.75886,2.64629 v 5.31787 c -1.75611,-1.5812 -3.63261,-2.76282 -5.62977,-3.54509 -1.97994,-0.78228 -4.08896,-1.1735 -6.32715,-1.1735 -4.40752,0 -7.7822,1.30664 -10.1237,3.91979 -2.34149,2.59651 -3.51215,6.35797 -3.51215,11.28468 0,4.91006 1.17066,8.67177 3.51215,11.28491 2.3415,2.59649 5.71618,3.89472 10.1237,3.89472 2.23819,0 4.34721,-0.39121 6.32715,-1.17349 1.99716,-0.78227 3.87366,-1.96389 5.62977,-3.54509 v 5.26776 c -1.82497,1.19839 -3.76174,2.09721 -5.81054,2.6964 -2.03159,0.59919 -4.18363,0.89881 -6.45625,0.89881 -5.83651,0 -10.43361,-1.72263 -13.7909,-5.168 -3.35729,-3.462 -5.03577,-8.18073 -5.03577,-14.15602 0,-5.99195 1.67848,-10.71044 5.03577,-14.15579 3.35729,-3.46201 7.95439,-5.19306 13.7909,-5.19306 z m -96.56074,0.67399 h 5.2167 v 33.03065 h 18.775 v 4.24437 h -23.9917 z"
       id="rect3699-7"
       inkscape:connector-curvature="0" />
    <path
       style="fill:#000000;fill-opacity:1;stroke:#000000;stroke-width:0;stroke-miterlimit:4;stroke-dasharray:none;stroke-opacity:0.99526068"
       d="m 870.05273,1693.8066 v 881.4278 H 8410.2266 V 1693.8066 Z M 4507.6387,1951.209 c 55.5094,0 99.8802,18.7023 133.1152,56.1074 33.235,37.2278 49.8535,87.2211 49.8535,149.9766 0,62.5781 -16.6185,112.5695 -49.8535,149.9746 -33.235,37.2278 -77.6058,55.8418 -133.1152,55.8418 -55.6863,0 -100.2367,-18.614 -133.6485,-55.8418 -33.2349,-37.2278 -49.8515,-87.2192 -49.8515,-149.9746 0,-62.7555 16.6166,-112.7488 49.8515,-149.9766 33.4118,-37.4051 77.9622,-56.1074 133.6485,-56.1074 z m -1493.7188,7.1797 h 60.7246 l 150.8828,397.0078 h -55.6855 l -36.0625,-101.8438 h -178.4629 l -36.0625,101.8438 h -56.4824 z m 614.9356,0 h 136.83 c 40.8366,0 72.3027,8.5089 94.4004,25.5273 22.0978,17.0184 33.1465,41.218 33.1465,72.5957 0,24.2867 -5.6566,43.6095 -16.9707,57.9688 -11.314,14.3593 -27.9306,23.3119 -49.8515,26.8574 26.3404,5.6728 46.7578,17.5488 61.2539,35.6309 14.6728,17.9047 22.0097,40.3315 22.0097,67.2773 0,35.455 -12.0221,62.843 -36.0644,82.166 -24.0423,19.323 -58.2489,28.9844 -102.6211,28.9844 h -142.1328 z m 1485.2324,0 h 53.8301 v 241.1836 c 0,42.546 7.6903,73.2147 23.0703,92.0058 15.38,18.6139 40.3068,27.9199 74.7793,27.9199 34.2956,0 59.1317,-9.306 74.5117,-27.9199 15.38,-18.7911 23.0703,-49.4598 23.0703,-92.0058 v -241.1836 h 53.8301 v 247.832 c 0,51.7644 -12.8159,90.8536 -38.4492,117.2676 -25.4566,26.414 -63.1105,39.6211 -112.9629,39.6211 -50.0293,0 -87.8608,-13.2071 -113.4942,-39.6211 -25.4565,-26.414 -38.1855,-65.5032 -38.1855,-117.2676 z m 694.7519,0 h 334.9141 v 45.2051 h -140.543 v 351.8027 h -53.83 v -351.8027 h -140.5411 z m -1301.2011,36.4297 c -38.892,0 -69.8289,14.5381 -92.8106,43.6113 -22.8048,29.0731 -34.207,68.6944 -34.207,118.8633 0,49.9916 11.4022,89.5225 34.207,118.5957 22.9817,29.0731 53.9186,43.6093 92.8106,43.6093 38.892,0 69.6512,-14.5362 92.2793,-43.6093 22.8048,-29.0732 34.207,-68.6041 34.207,-118.5957 0,-50.1689 -11.4022,-89.7902 -34.207,-118.8633 -22.6281,-29.0732 -53.3873,-43.6113 -92.2793,-43.6113 z m -825.2188,7.7128 v 119.6602 h 79.2871 c 26.1637,0 45.6096,-4.8749 58.3379,-14.625 12.9051,-9.9274 19.3574,-24.9957 19.3574,-45.2051 0,-20.0321 -6.4523,-35.012 -19.3574,-44.9394 -12.7283,-9.9274 -32.1742,-14.8906 -58.3379,-14.8907 z m -638.2695,8.7754 -72.6582,197.5723 h 145.5801 z m 638.2695,154.4942 v 145.4551 h 85.916 c 28.8155,0 50.1193,-5.939 63.9082,-17.8164 13.9658,-12.0548 20.9473,-30.4037 20.9473,-55.045 0,-24.8185 -6.9815,-43.0771 -20.9473,-54.7773 -13.7889,-11.8775 -35.0927,-17.8164 -63.9082,-17.8164 z"
       transform="matrix(0.26458333,0,0,0.26458333,-507.30656,-68.983681)"
       id="rect4871-7"
       inkscape:connector-curvature="0" />
    <path
       style="fill:#000000;fill-opacity:1;stroke:#000000;stroke-width:0.12476683;stroke-opacity:0.99526068"
       d="m -503.83135,749.07057 v 233.14879 h 238.4407 V 749.07057 Z m 22.5722,23.72431 h 13.0392 c 3.89149,0 6.89009,0.82899 8.99589,2.48677 2.1058,1.65777 3.15871,4.01485 3.15871,7.07138 0,2.36579 -0.53911,4.24805 -1.61721,5.6468 -1.0782,1.39875 -2.6617,2.2708 -4.7507,2.61617 2.5102,0.55259 4.4559,1.70948 5.8373,3.47087 1.3983,1.74412 2.0973,3.92874 2.0973,6.55355 0,3.45371 -1.1456,6.12166 -3.4367,8.00393 -2.2911,1.88227 -5.5508,2.8234 -9.77929,2.8234 h -13.5445 z m 94.63479,0 h 5.78651 l 14.3785,38.67287 h -5.30661 l -3.4367,-9.92081 h -17.00649 l -3.43671,9.92081 h -5.3823 z m 75.07585,0 h 5.10436 v 34.26945 h 18.37102 v 4.40342 h -23.47538 z m -164.60604,4.2998 v 11.65624 h 7.5556 c 2.4933,0 4.34629,-0.47482 5.55929,-1.42459 1.2297,-0.96704 1.8447,-2.4348 1.8447,-4.40341 0,-1.95134 -0.615,-3.41059 -1.8447,-4.37763 -1.213,-0.96704 -3.06599,-1.45061 -5.55929,-1.45061 z m 92.4108,0.85494 -6.9239,19.24571 h 13.87299 z m -92.4108,15.04953 v 14.1688 h 8.1874 c 2.74589,0 4.77569,-0.57869 6.08979,-1.73568 1.3308,-1.17426 1.9963,-2.96141 1.9963,-5.36173 0,-2.4176 -0.6655,-4.19623 -1.9963,-5.33595 -1.3141,-1.15699 -3.3439,-1.73544 -6.08979,-1.73544 z m -6.3355,52.69636 h 5.4101 v 34.26922 h 19.47109 v 4.40365 h -24.88119 z m 82.91909,0 h 25.2827 v 4.40342 h -19.8726 v 11.44901 h 19.04241 v 4.40341 h -19.04241 v 14.01338 h 20.3546 v 4.40365 h -25.7647 z m 81.55298,0 h 33.82641 v 4.40342 h -14.1946 v 34.26945 h -5.43698 v -34.26945 h -14.19483 z m -150.79967,73.87871 c 1.8078,0 3.64999,0.15798 5.52659,0.47423 1.8767,0.31624 3.7964,0.79067 5.7591,1.42314 v 4.91835 c -1.9799,-0.91543 -3.84789,-1.59785 -5.604,-2.04724 -1.7561,-0.4494 -3.45209,-0.67398 -5.08769,-0.67398 -2.8408,0 -5.0358,0.5326 -6.5853,1.59784 -1.5323,1.06523 -2.2987,2.57988 -2.2987,4.5439 0,1.64778 0.5081,2.89599 1.5239,3.74486 1.033,0.8322 2.9785,1.50645 5.8365,2.02242 l 3.1506,0.62411 c 3.89099,0.7157 6.75759,1.98075 8.59979,3.79497 1.8594,1.79757 2.7891,4.2108 2.7891,7.24007 0,3.61179 -1.25669,6.34988 -3.7704,8.21404 -2.4964,1.86414 -6.1636,2.79617 -11.00159,2.79617 -1.825,0 -3.7705,-0.19959 -5.8365,-0.59905 -2.0488,-0.39947 -4.1751,-0.99049 -6.3788,-1.77278 v -5.19282 c 2.1176,1.14845 4.1922,2.01386 6.2237,2.59642 2.0316,0.58253 4.0289,0.87373 5.9916,0.87373 2.9785,0 5.27679,-0.5658 6.8952,-1.6976 1.61839,-1.13182 2.42779,-2.74624 2.42779,-4.84342 0,-1.83087 -0.5854,-3.26231 -1.7561,-4.29426 -1.1535,-1.03194 -3.05609,-1.80598 -5.70739,-2.32194 l -3.1766,-0.59929 c -3.891,-0.74899 -6.7059,-1.92243 -8.4448,-3.52027 -1.7389,-1.59784 -2.6085,-3.81967 -2.6085,-6.66585 0,-3.29554 1.1967,-5.89225 3.5898,-7.78969 2.4104,-1.89744 5.7245,-2.84606 9.9427,-2.84606 z m 168.81994,0 c 2.30705,0 4.47634,0.29962 6.50793,0.89882 2.0488,0.58254 3.9683,1.46454 5.75886,2.64628 v 5.31787 c -1.75612,-1.5812 -3.63261,-2.76282 -5.62977,-3.54509 -1.97994,-0.78228 -4.08896,-1.17349 -6.32715,-1.17349 -4.40752,0 -7.7822,1.30663 -10.1237,3.91978 -2.34149,2.59651 -3.51215,6.35797 -3.51215,11.28468 0,4.91006 1.17066,8.67178 3.51215,11.28491 2.3415,2.5965 5.71618,3.89472 10.1237,3.89472 2.23819,0 4.34721,-0.39121 6.32715,-1.17349 1.99716,-0.78227 3.87365,-1.96388 5.62977,-3.54509 v 5.26776 c -1.82498,1.19839 -3.76174,2.09722 -5.81055,2.6964 -2.03159,0.5992 -4.18362,0.89882 -6.45624,0.89882 -5.83651,0 -10.43361,-1.72264 -13.7909,-5.16801 -3.35729,-3.46199 -5.03577,-8.18073 -5.03577,-14.15602 0,-5.99195 1.67848,-10.71044 5.03577,-14.15579 3.35729,-3.46201 7.95439,-5.19306 13.7909,-5.19306 z m -96.56074,0.67399 h 5.2167 v 33.03066 h 18.775 v 4.24436 h -23.9917 z"
       id="rect3699-7-9"
       inkscape:connector-curvature="0" />
    <path
       style="fill:#000000;fill-opacity:1;stroke:#000000;stroke-width:0;stroke-miterlimit:4;stroke-dasharray:none;stroke-opacity:0.99526068"
       d="m 870.05273,3091.8594 v 881.4277 H 8410.2266 v -881.4277 z m 1852.13867,233.1582 c 18.5621,0 37.4769,1.6845 56.7461,5.0527 19.2692,3.3682 38.9816,8.4198 59.1348,15.1563 v 52.3847 c -20.3299,-9.7501 -39.5113,-17.0182 -57.543,-21.8047 -18.0317,-4.7864 -35.444,-7.1796 -52.2383,-7.1796 -29.169,0 -51.7088,5.6719 -67.6191,17.0175 -15.7336,11.3456 -23.6016,27.478 -23.6016,48.3965 0,17.5503 5.2164,30.8457 15.6465,39.8867 10.6069,8.8638 30.582,16.0436 59.9277,21.5391 l 32.3516,6.6484 c 39.9527,7.6229 69.3871,21.095 88.3027,40.418 19.0925,19.1457 28.6387,44.8511 28.6387,77.1152 0,38.4688 -12.9047,67.6315 -38.7148,87.4864 -25.6334,19.8548 -63.2892,29.7812 -112.9649,29.7812 -18.7389,0 -38.7139,-2.1262 -59.9277,-6.3808 -21.0371,-4.2546 -42.87,-10.549 -65.4981,-18.8809 v -55.3105 c 21.7442,12.2319 43.046,21.4516 63.9063,27.6562 20.8602,6.2046 41.3664,9.3066 61.5195,9.3066 30.5833,0 54.1853,-6.0273 70.8027,-18.082 16.6175,-12.0547 24.9258,-29.2512 24.9258,-51.5879 0,-19.5003 -6.0101,-34.7452 -18.0312,-45.7363 -11.8444,-10.9911 -31.3791,-19.2349 -58.6035,-24.7305 l -32.6172,-6.3808 c -39.9527,-7.9774 -68.856,-20.4758 -86.711,-37.4942 -17.8549,-17.0184 -26.7832,-40.684 -26.7832,-70.998 0,-35.1005 12.2867,-62.7555 36.8594,-82.9649 24.7495,-20.2093 58.7803,-30.3144 102.0918,-30.3144 z m 2096.9844,0 c 18.5621,0 37.4788,1.6845 56.748,5.0527 19.2692,3.3682 38.9797,8.4198 59.1328,15.1563 v 52.3847 c -20.3299,-9.7501 -39.5092,-17.0182 -57.541,-21.8047 -18.0317,-4.7864 -35.4459,-7.1796 -52.2402,-7.1796 -29.169,0 -51.7088,5.6719 -67.6192,17.0175 -15.7335,11.3456 -23.5996,27.478 -23.5996,48.3965 0,17.5503 5.2144,30.8457 15.6446,39.8867 10.6069,8.8638 30.5839,16.0436 59.9297,21.5391 l 32.3515,6.6484 c 39.9527,7.6229 69.3852,21.095 88.3008,40.418 19.0924,19.1457 28.6387,44.8511 28.6387,77.1152 0,38.4688 -12.9047,67.6315 -38.7149,87.4864 -25.6333,19.8548 -63.2872,29.7812 -112.9629,29.7812 -18.7388,0 -38.7158,-2.1262 -59.9296,-6.3808 -21.0371,-4.2546 -42.87,-10.549 -65.4981,-18.8809 v -55.3105 c 21.7442,12.2319 43.048,21.4516 63.9082,27.6562 20.8603,6.2046 41.3664,9.3066 61.5195,9.3066 30.5833,0 54.1833,-6.0273 70.8008,-18.082 16.6175,-12.0547 24.9258,-29.2512 24.9258,-51.5879 0,-19.5003 -6.0101,-34.7452 -18.0312,-45.7363 -11.8444,-10.9911 -31.3792,-19.2349 -58.6036,-24.7305 l -32.6152,-6.3808 c -39.9527,-7.9774 -68.8579,-20.4758 -86.7129,-37.4942 -17.8549,-17.0184 -26.7812,-40.684 -26.7812,-70.998 0,-35.1005 12.2867,-62.7555 36.8593,-82.9649 24.7495,-20.2093 58.7783,-30.3144 102.0899,-30.3144 z m 729.7558,0 c 55.5095,0 99.8823,18.7023 133.1172,56.1074 33.235,37.2278 49.8516,87.2192 49.8516,149.9746 0,62.5782 -16.6166,112.5695 -49.8516,149.9746 -33.2349,37.2278 -77.6077,55.8418 -133.1172,55.8418 -55.6862,0 -100.2347,-18.614 -133.6464,-55.8418 -33.235,-37.2278 -49.8536,-87.2192 -49.8536,-149.9746 0,-62.7554 16.6186,-112.7468 49.8536,-149.9746 33.4117,-37.4051 77.9602,-56.1074 133.6464,-56.1074 z m -2257.6796,7.1797 h 250.3222 v 45.205 h -196.7578 v 117.5332 h 188.5391 v 45.2051 H 3344.8164 V 3684 h 201.5313 v 45.2051 H 3291.252 Z m 791.541,0 h 60.7246 l 150.8828,397.0078 h -55.6875 l -36.0625,-101.8457 h -178.4609 l -36.0645,101.8457 h -56.4805 z m 2078.6875,0 h 72.1269 l 175.5449,332.125 v -332.125 h 51.9727 v 397.0078 h -72.127 l -175.5429,-332.125 v 332.125 h -51.9746 z m -612.5489,36.4297 c -38.8919,0 -69.8289,14.5362 -92.8105,43.6093 -22.8049,29.0732 -34.207,68.6944 -34.207,118.8633 0,49.9916 11.4021,89.5245 34.207,118.5977 22.9816,29.0731 53.9186,43.6093 92.8105,43.6093 38.892,0 69.6532,-14.5362 92.2813,-43.6093 22.8048,-29.0732 34.207,-68.6061 34.207,-118.5977 0,-50.1689 -11.4022,-89.7901 -34.207,-118.8633 -22.6281,-29.0731 -53.3893,-43.6093 -92.2813,-43.6093 z m -1435.9101,16.4863 -72.6563,197.5742 h 145.5801 z"
       transform="matrix(0.26458333,0,0,0.26458333,-507.30656,-68.983681)"
       id="rect4871-7-0"
       inkscape:connector-curvature="0" />
    <path
       style="fill:#000000;fill-opacity:1;stroke:#000000;stroke-width:0.12476683;stroke-opacity:0.99526068"
       d="m -516.6603,1114.6953 v 233.1488 h 238.44072 v -233.1488 z m 22.5722,23.7243 h 13.0392 c 3.8915,0 6.8901,0.829 8.9959,2.4868 2.1058,1.6578 3.1587,4.0148 3.1587,7.0714 0,2.3658 -0.5391,4.248 -1.6172,5.6468 -1.0782,1.3987 -2.6617,2.2708 -4.7507,2.6161 2.5102,0.5526 4.4559,1.7095 5.8373,3.4709 1.3983,1.7441 2.09731,3.9287 2.09731,6.5536 0,3.4537 -1.14561,6.1216 -3.43671,8.0039 -2.2911,1.8823 -5.5508,2.8234 -9.7793,2.8234 h -13.5445 z m 94.63481,0 h 5.78651 l 14.3785,38.6729 h -5.30661 l -3.4367,-9.9208 h -17.00649 l -3.43671,9.9208 h -5.3823 z m 75.07585,0 h 5.10436 v 34.2695 h 18.37102 v 4.4034 h -23.47538 z m -164.60606,4.2998 v 11.6563 h 7.5556 c 2.4933,0 4.3463,-0.4749 5.5593,-1.4246 1.2297,-0.9671 1.8447,-2.4348 1.8447,-4.4034 0,-1.9514 -0.615,-3.4106 -1.8447,-4.3777 -1.213,-0.967 -3.066,-1.4506 -5.5593,-1.4506 z m 92.41082,0.855 -6.9239,19.2457 h 13.87299 z m -92.41082,15.0495 v 14.1688 h 8.1874 c 2.7459,0 4.7757,-0.5787 6.0898,-1.7357 1.3308,-1.1743 1.9963,-2.9614 1.9963,-5.3617 0,-2.4176 -0.6655,-4.1962 -1.9963,-5.336 -1.3141,-1.157 -3.3439,-1.7354 -6.0898,-1.7354 z m -6.3355,52.6964 h 5.4101 v 34.2692 h 19.4711 v 4.4036 h -24.8812 z m 82.91911,0 h 25.2827 v 4.4034 h -19.8726 v 11.449 h 19.04241 v 4.4034 h -19.04241 v 14.0134 h 20.3546 v 4.4036 h -25.7647 z m 81.55298,0 h 33.82641 v 4.4034 h -14.1946 v 34.2694 h -5.43698 v -34.2694 h -14.19483 z m -150.79969,73.8787 c 1.8078,0 3.65,0.1579 5.5266,0.4742 1.8767,0.3162 3.7964,0.7907 5.7591,1.4231 v 4.9184 c -1.9799,-0.9154 -3.8479,-1.5979 -5.604,-2.0473 -1.7561,-0.4494 -3.4521,-0.6739 -5.0877,-0.6739 -2.8408,0 -5.0358,0.5326 -6.5853,1.5978 -1.5323,1.0652 -2.2987,2.5799 -2.2987,4.5439 0,1.6478 0.5081,2.896 1.5239,3.7449 1.033,0.8322 2.9785,1.5064 5.8365,2.0224 l 3.1506,0.6241 c 3.891,0.7157 6.7576,1.9807 8.5998,3.795 1.8594,1.7975 2.7891,4.2108 2.7891,7.24 0,3.6118 -1.2567,6.3499 -3.7704,8.2141 -2.4964,1.8641 -6.1636,2.7961 -11.0016,2.7961 -1.825,0 -3.7705,-0.1995 -5.8365,-0.599 -2.0488,-0.3995 -4.1751,-0.9905 -6.3788,-1.7728 v -5.1928 c 2.1176,1.1484 4.1922,2.0139 6.2237,2.5964 2.0316,0.5825 4.0289,0.8737 5.9916,0.8737 2.9785,0 5.2768,-0.5658 6.8952,-1.6976 1.6184,-1.1318 2.4278,-2.7462 2.4278,-4.8434 0,-1.8308 -0.5854,-3.2623 -1.7561,-4.2942 -1.1535,-1.032 -3.0561,-1.806 -5.7074,-2.322 l -3.1766,-0.5993 c -3.891,-0.749 -6.7059,-1.9224 -8.4448,-3.5202 -1.7389,-1.5979 -2.6085,-3.8197 -2.6085,-6.6659 0,-3.2955 1.1967,-5.8922 3.5898,-7.7897 2.4104,-1.8974 5.7245,-2.846 9.9427,-2.846 z m 168.81996,0 c 2.30705,0 4.47634,0.2996 6.50793,0.8988 2.0488,0.5825 3.9683,1.4645 5.75886,2.6463 v 5.3178 c -1.75612,-1.5812 -3.63261,-2.7628 -5.62977,-3.5451 -1.97994,-0.7822 -4.08896,-1.1734 -6.32715,-1.1734 -4.40752,0 -7.7822,1.3066 -10.1237,3.9197 -2.34149,2.5965 -3.51215,6.358 -3.51215,11.2847 0,4.9101 1.17066,8.6718 3.51215,11.2849 2.3415,2.5965 5.71618,3.8947 10.1237,3.8947 2.23819,0 4.34721,-0.3912 6.32715,-1.1734 1.99716,-0.7823 3.87365,-1.9639 5.62977,-3.5451 v 5.2677 c -1.82498,1.1984 -3.76174,2.0972 -5.81055,2.6964 -2.03159,0.5992 -4.18362,0.8988 -6.45624,0.8988 -5.83651,0 -10.43361,-1.7226 -13.7909,-5.168 -3.35729,-3.462 -5.03577,-8.1807 -5.03577,-14.156 0,-5.9919 1.67848,-10.7104 5.03577,-14.1558 3.35729,-3.462 7.95439,-5.193 13.7909,-5.193 z m -96.56074,0.674 h 5.2167 v 33.0306 h 18.775 v 4.2444 h -23.9917 z"
       id="rect3699-7-6"
       inkscape:connector-curvature="0" />
    <rect
       style="fill:#000000;fill-opacity:1;stroke:#000000;stroke-width:0;stroke-miterlimit:4;stroke-dasharray:none;stroke-opacity:0.99526068"
       id="rect4871-7-09"
       width="1049.736"
       height="233.21109"
       x="-290.39059"
       y="1114.6953" />
    <text
       xml:space="preserve"
       style="font-style:normal;font-weight:normal;font-size:24.11968803px;line-height:1.25;font-family:sans-serif;letter-spacing:0px;word-spacing:0px;fill:#000000;fill-opacity:1;stroke:none;stroke-width:0.60299224"
       x="-143.1713"
       y="1267.3779"
       id="text4875-2-2"
       transform="scale(0.99960881,1.0003913)"><tspan
         sodipodi:role="line"
         id="tspan4873-0-9"
         x="-143.1713"
         y="1267.3779"
         style="font-size:115.77451324px;fill:#ffffff;fill-opacity:1;stroke-width:0.60299224">A  B  O  U  T</tspan></text>
  </g>
</svg>
