<?xml version="1.0" encoding="UTF-8" standalone="no"?>
<svg
   xmlns:dc="http://purl.org/dc/elements/1.1/"
   xmlns:cc="http://creativecommons.org/ns#"
   xmlns:rdf="http://www.w3.org/1999/02/22-rdf-syntax-ns#"
   xmlns:svg="http://www.w3.org/2000/svg"
   xmlns="http://www.w3.org/2000/svg"
   id="svg8"
   version="1.1"
   viewBox="0 0 503.02405 499.99997"
   height="499.99997mm"
   width="503.02405mm">
  <defs
     id="defs2" />
  <metadata
     id="metadata5">
    <rdf:RDF>
      <cc:Work
         rdf:about="">
        <dc:format>image/svg+xml</dc:format>
        <dc:type
           rdf:resource="http://purl.org/dc/dcmitype/StillImage" />
        <dc:title></dc:title>
      </cc:Work>
    </rdf:RDF>
  </metadata>
  <g
     transform="translate(504.22037,74.929054)"
     id="layer1">
    <path
       id="rect3699"
       d="M -504.22037,-74.929054 V 425.07092 H -1.1963093 V -74.929054 Z m 47.61931,50.87803 h 27.50788 c 8.20971,0 14.53571,1.777815 18.97817,5.333008 4.44249,3.555192 6.66366,8.610078 6.66366,15.1649661 0,5.0735576 -1.13715,9.1101602 -3.41167,12.109855 -2.27457,2.9996949 -5.61517,4.8698439 -10.02212,5.6105099 5.29545,1.185063 9.40025,3.666081 12.3145,7.443474 2.94981,3.74036 4.42452,8.425381 4.42452,14.054438 0,7.406654 -2.41676,13.128218 -7.25019,17.164844 -4.83341,4.036626 -11.71027,6.054929 -20.63078,6.054929 h -28.57397 z m 199.64517,0 h 12.20752 L -214.41482,58.885 H -225.61 l -7.2502,-21.275704 h -35.8774 L -275.9878,58.885 h -11.35486 z m 158.383096,0 h 10.768334 v 73.492672 h 38.75629 V 58.885 h -49.524624 z m -347.259436,9.221143 V 10.16756 h 15.93962 c 5.25989,0 9.1691,-1.0182794 11.72797,-3.0551111 2.59442,-2.0738621 3.89173,-5.2215589 3.89173,-9.4433511 0,-4.1847589 -1.29731,-7.3141945 -3.89173,-9.3880578 -2.55887,-2.073862 -6.46808,-3.110921 -11.72797,-3.110921 z m 194.95349,1.83348 -14.60686,41.273449 h 29.26695 z m -194.95349,32.274515 v 30.385741 h 17.27235 c 5.793,0 10.07515,-1.241025 12.84727,-3.722253 2.80762,-2.518262 4.21163,-6.350902 4.21163,-11.498522 0,-5.184661 -1.40401,-8.999037 -4.21163,-11.443229 -2.77212,-2.481232 -7.05427,-3.721737 -12.84727,-3.721737 z m -13.36558,113.010156 h 11.41325 v 73.49215 h 41.07709 v 9.44387 h -52.49034 z m 174.92938,0 h 53.33731 v 9.44335 h -41.92406 v 24.55302 h 40.17274 v 9.44335 h -40.17274 v 30.05243 h 42.94105 v 9.44387 h -54.3543 z m 172.04737,0 h 71.361537 v 9.44335 h -29.945458 v 73.49267 h -11.4701 V 141.73162 H -112.22106 Z M -430.3541,290.72511 c 3.81376,0 7.70022,0.3388 11.65923,1.017 3.95904,0.67818 8.00902,1.69561 12.14967,3.052 v 10.54767 c -4.17695,-1.96319 -8.11776,-3.42668 -11.82253,-4.39042 -3.70478,-0.96375 -7.28269,-1.44539 -10.7332,-1.44539 -5.99302,0 -10.62379,1.1422 -13.89269,3.42667 -3.2326,2.28444 -4.84933,5.53267 -4.84933,9.74463 0,3.53375 1.07182,6.21059 3.21479,8.03103 2.17929,1.78472 6.28362,3.23067 12.31294,4.33718 l 6.64663,1.33842 c 8.20864,1.53488 14.25617,4.24784 18.14255,8.13853 3.92272,3.85501 5.88389,9.03031 5.88389,15.52671 0,7.7457 -2.65113,13.61768 -7.95404,17.61545 -5.26658,3.9978 -13.00313,5.99654 -23.20943,5.99654 -3.85006,0 -7.95438,-0.42801 -12.31294,-1.28468 -4.32224,-0.85667 -8.80793,-2.12418 -13.45706,-3.80182 v -11.13629 c 4.46752,2.46293 8.84402,4.31885 13.12995,5.56816 4.28591,1.24928 8.49942,1.87377 12.64005,1.87377 6.28359,0 11.13218,-1.21337 14.54639,-3.64061 3.41421,-2.42723 5.12167,-5.88944 5.12167,-10.38696 0,-3.92639 -1.23483,-6.99619 -3.70469,-9.20924 -2.43353,-2.21309 -6.44713,-3.87303 -12.04061,-4.97954 l -6.70139,-1.28522 c -8.20865,-1.60623 -14.14701,-4.12273 -17.81546,-7.5494 -3.66847,-3.42668 -5.50301,-8.19148 -5.50301,-14.29526 0,-7.06749 2.52449,-12.63626 7.57317,-16.70542 5.085,-4.06918 12.07672,-6.10351 20.97545,-6.10351 z m 356.149327,0 c 4.867062,0 9.443474,0.64254 13.729394,1.92754 4.322241,1.24931 8.371708,3.14079 12.14913,5.6751 v 11.40447 c -3.704778,-3.39098 -7.663516,-5.925 -11.876795,-7.60264 -4.176956,-1.67765 -8.626246,-2.51664 -13.348022,-2.51664 -9.298267,0 -16.417648,2.80217 -21.357353,8.40621 -4.939704,5.56834 -7.409371,13.63501 -7.409371,24.20059 0,10.52989 2.469667,18.59706 7.409371,24.20109 4.939705,5.56834 12.059086,8.35247 21.357353,8.35247 4.721776,0 9.171066,-0.83899 13.348022,-2.51663 4.213279,-1.67765 8.172017,-4.21167 11.876795,-7.60265 v 11.297 c -3.850064,2.57 -7.935926,4.49757 -12.258167,5.78257 -4.28592,1.285 -8.825938,1.92754 -13.620357,1.92754 -12.31294,0 -22.011167,-3.69427 -29.093827,-11.08305 -7.08267,-7.42444 -10.62365,-17.54402 -10.62365,-30.35834 0,-12.85005 3.54098,-22.96909 10.62365,-30.35784 7.08266,-7.42448 16.780887,-11.13679 29.093827,-11.13679 z m -203.708497,1.44539 h 11.00553 v 70.836 h 39.60844 v 9.10227 h -50.61397 z"
       style="stroke-width:0.26538217" />
    <flowRoot
       transform="scale(0.26458333)"
       style="font-style:normal;font-weight:normal;font-size:40px;line-height:1.25;font-family:sans-serif;letter-spacing:0px;word-spacing:0px;fill:#000000;fill-opacity:1;stroke:none"
       id="flowRoot3786"
       xml:space="preserve"><flowRegion
         id="flowRegion3788"><rect
           y="476.80539"
           x="-642.85712"
           height="405.71429"
           width="1217.1428"
           id="rect3790" /></flowRegion><flowPara
         id="flowPara3792"></flowPara></flowRoot>    <flowRoot
       transform="scale(0.26458333)"
       style="font-style:normal;font-weight:normal;font-size:40px;line-height:1.25;font-family:sans-serif;letter-spacing:0px;word-spacing:0px;fill:#000000;fill-opacity:1;stroke:none"
       id="flowRoot3839"
       xml:space="preserve"><flowRegion
         id="flowRegion3841"><rect
           y="-1948.9089"
           x="-685.71429"
           height="1905.7142"
           width="460"
           id="rect3843" /></flowRegion><flowPara
         id="flowPara3845"></flowPara></flowRoot>  </g>
</svg>
